<svg version="1.1" id="Layer_1" xmlns="http://www.w3.org/2000/svg" xmlns:xlink="http://www.w3.org/1999/xlink" x="0px" y="0px"
	 width="100%" viewBox="0 0 4501 4501" enable-background="new 0 0 4501 4501" xml:space="preserve">
<path fill="#FFFFFF" opacity="1.000000" stroke="none" 
	d="
M3108.000000,4508.000000 
	C2072.000000,4508.000000 1038.000000,4508.000000 4.000000,4508.000000 
	C4.000000,3006.666748 4.000000,1505.333374 4.000000,4.000001 
	C1505.333374,4.000000 3006.666748,4.000000 4508.000000,4.000000 
	C4508.000000,1505.333374 4508.000000,3006.666748 4508.000000,4508.000000 
	C4042.000000,4508.000000 3576.000000,4508.000000 3108.000000,4508.000000 
M1907.545898,3898.722168 
	C1954.183228,3906.556885 2000.983154,3913.159424 2048.033691,3918.040283 
	C2055.313232,3918.795166 2061.038330,3917.772705 2066.094238,3912.427490 
	C2069.748779,3908.563477 2073.945312,3905.217285 2077.689941,3901.432129 
	C2096.907715,3882.007080 2116.391602,3862.830566 2135.172119,3842.989746 
	C2206.906006,3767.203369 2270.221436,3685.002930 2322.604492,3594.613770 
	C2406.130615,3450.485840 2454.777832,3295.286621 2466.907227,3129.219238 
	C2472.102295,3058.088867 2470.747314,2986.819336 2460.979004,2915.812012 
	C2450.032959,2836.243652 2430.136475,2759.129150 2401.635498,2684.161133 
	C2357.978760,2569.328613 2296.434082,2464.459717 2223.544434,2365.994141 
	C2167.171631,2289.841064 2105.540039,2218.030029 2041.204590,2148.581299 
	C1977.822754,2080.161621 1913.183716,2012.908203 1849.653320,1944.624512 
	C1800.647583,1891.952271 1751.783936,1839.114014 1704.155762,1785.202271 
	C1641.430786,1714.201904 1583.455811,1639.430786 1532.106934,1559.677002 
	C1473.403198,1468.499390 1425.674194,1372.072021 1392.661621,1268.585327 
	C1366.837524,1187.633179 1350.533081,1104.744873 1344.987427,1020.026733 
	C1341.157227,961.514343 1341.239014,902.864990 1346.866699,844.324280 
	C1352.418091,786.576721 1359.574585,729.154541 1375.752686,673.216675 
	C1377.227539,668.117126 1378.422729,662.821228 1378.791016,657.549744 
	C1379.156616,652.315491 1379.119629,646.794556 1377.854492,641.751770 
	C1373.473511,624.289551 1357.599121,615.547424 1340.847168,621.858215 
	C1333.500122,624.625854 1326.761108,629.329651 1320.218018,633.839233 
	C1308.154175,642.153687 1296.675293,651.323425 1284.541382,659.528809 
	C1169.406616,737.387756 1061.685181,824.198730 963.379395,922.666809 
	C877.846924,1008.340576 801.153931,1101.094360 734.802124,1202.370728 
	C643.942261,1341.054932 576.013916,1490.155396 531.342896,1649.852661 
	C502.917297,1751.473633 484.445923,1854.839966 474.849762,1959.929565 
	C469.209167,2021.700562 466.809235,2083.551758 467.044098,2145.503174 
	C467.266327,2204.117676 469.888947,2262.641113 475.174194,2321.076904 
	C479.617004,2370.197998 485.204834,2419.161133 493.156006,2467.792725 
	C509.190063,2565.862061 532.461365,2662.196777 564.275940,2756.433838 
	C631.808899,2956.470215 734.108337,3136.725586 871.840820,3296.705078 
	C954.755432,3393.012451 1047.661621,3478.741943 1149.101807,3555.277832 
	C1264.928955,3642.668213 1387.954590,3718.462158 1519.563843,3779.400146 
	C1642.210083,3836.188232 1771.303955,3873.604004 1907.545898,3898.722168 
M3125.206055,1719.202515 
	C3101.996582,1742.192505 3078.782471,1765.182495 3058.842285,1791.181274 
	C3044.193604,1810.281006 3031.094727,1830.294189 3022.447998,1852.953979 
	C3013.945801,1875.234619 3010.536621,1898.016357 3016.407227,1921.435547 
	C3018.663330,1930.437378 3021.904053,1939.280151 3025.547852,1947.832520 
	C3056.350098,2020.132080 3087.215332,2092.405518 3118.330078,2164.571045 
	C3145.221680,2226.941650 3173.113037,2288.878906 3193.778320,2353.754395 
	C3217.738281,2428.973145 3233.554199,2505.849854 3239.067383,2584.525879 
	C3242.839600,2638.361572 3242.536377,2692.328125 3236.789307,2746.216553 
	C3232.116211,2790.037354 3224.650146,2833.270752 3213.735352,2875.897461 
	C3185.478516,2986.251709 3137.057617,3087.194336 3071.000244,3179.827148 
	C3014.627441,3258.879639 2948.956543,3329.674316 2877.152588,3394.672852 
	C2769.422852,3492.191650 2657.864746,3585.280273 2545.780762,3677.738525 
	C2499.533936,3715.887451 2450.670410,3750.912842 2408.081543,3793.461914 
	C2384.986572,3816.535400 2360.936279,3838.650391 2337.706543,3861.592529 
	C2322.498779,3876.612305 2309.032959,3893.169922 2298.382568,3911.814941 
	C2296.917480,3914.379639 2296.483398,3917.533447 2295.608398,3920.299561 
	C2305.433594,3925.232910 2313.916504,3920.831787 2322.380371,3920.793457 
	C2383.803223,3920.515625 2444.649902,3913.623291 2505.329834,3904.638428 
	C2594.494629,3891.435791 2681.692871,3870.070068 2767.328125,3842.169189 
	C2907.843750,3796.387695 3041.659180,3735.702881 3169.059814,3660.859863 
	C3321.712646,3571.182861 3459.633057,3462.767822 3581.727295,3334.519531 
	C3658.203125,3254.189453 3726.557617,3167.329102 3786.400391,3073.884766 
	C3845.852539,2981.050537 3896.083984,2883.468018 3936.381348,2780.817383 
	C3982.567139,2663.167480 4014.902344,2541.883301 4033.440674,2416.801025 
	C4042.535156,2355.438477 4047.993652,2293.792480 4050.635498,2231.927979 
	C4052.709717,2183.358887 4052.104980,2134.743652 4049.441406,2086.100830 
	C4046.671875,2035.524902 4042.735596,1985.133545 4036.683594,1934.847412 
	C4028.477051,1866.660278 4016.246094,1799.246216 4000.045654,1732.532837 
	C3966.067383,1592.609375 3915.021240,1459.296143 3845.550781,1333.081543 
	C3756.336182,1170.995850 3641.664307,1029.095825 3505.924316,903.830994 
	C3396.762939,803.093689 3277.288086,716.258301 3150.134033,639.786743 
	C3130.725586,628.114319 3111.022461,616.916931 3091.234375,605.897095 
	C3078.411377,598.756165 3065.026123,592.709045 3050.407959,590.108398 
	C3038.432861,587.978027 3029.235596,592.008423 3024.007324,602.940002 
	C3020.603516,610.056458 3017.888428,617.825806 3016.628662,625.588867 
	C3010.944580,660.612183 3008.985352,695.760071 3015.148438,731.008667 
	C3016.753418,740.188721 3018.111572,749.447754 3018.894043,758.728577 
	C3020.631104,779.321350 3021.498535,799.828369 3017.501221,820.434387 
	C3009.078857,863.848572 2990.167725,902.346313 2964.322266,937.745911 
	C2939.384277,971.903137 2909.087402,1000.888733 2876.497803,1027.559326 
	C2834.155273,1062.211670 2788.767822,1092.721558 2744.054932,1124.130981 
	C2660.613770,1182.745850 2576.759033,1240.773926 2496.347656,1303.578857 
	C2447.762207,1341.526489 2403.621338,1383.808472 2368.003906,1434.364014 
	C2308.430420,1518.923096 2278.017578,1612.022949 2287.856445,1716.258423 
	C2289.851562,1737.397217 2293.581543,1758.491943 2298.156982,1779.244141 
	C2309.604980,1831.166016 2334.597656,1877.721313 2357.742432,1924.948120 
	C2359.770264,1929.086304 2362.682373,1932.880859 2365.658936,1936.437256 
	C2368.200195,1939.473267 2371.159180,1942.313721 2374.390381,1944.592529 
	C2393.628662,1958.158569 2417.361572,1949.335815 2422.548096,1926.556274 
	C2423.865967,1920.768066 2424.458008,1914.620117 2424.170410,1908.696411 
	C2423.218262,1889.087158 2427.244873,1870.257324 2432.168701,1851.528442 
	C2453.419189,1770.694580 2496.408691,1704.370605 2563.933838,1654.486328 
	C2609.592773,1620.755859 2660.777100,1598.766113 2715.282227,1584.156738 
	C2788.619141,1564.499634 2863.387207,1559.547852 2938.968750,1562.989990 
	C3008.469482,1566.155396 3076.671631,1577.165161 3143.649902,1595.861328 
	C3161.072754,1600.724854 3178.698975,1603.641968 3196.849121,1603.677979 
	C3205.478516,1603.695068 3214.178223,1604.361572 3222.697021,1605.689697 
	C3226.002686,1606.204834 3228.896973,1609.357178 3233.355713,1612.179932 
	C3226.877686,1619.261475 3221.810547,1625.368408 3216.162598,1630.880249 
	C3186.591553,1659.737061 3156.873291,1688.443115 3125.206055,1719.202515 
M2731.979980,1793.042725 
	C2746.131348,1824.498169 2783.873535,1843.307983 2818.083496,1836.657715 
	C2854.400879,1829.598022 2882.420410,1798.713257 2883.532227,1761.320801 
	C2884.664062,1723.265991 2859.710693,1690.856445 2825.590088,1682.081177 
	C2785.624023,1671.802490 2751.270020,1689.366333 2734.695312,1719.051147 
	C2721.839111,1742.076538 2720.614258,1765.808472 2731.979980,1793.042725 
z"/>
<path fill="#009EDB" opacity="1.000000" stroke="none" 
	d="
M1905.880737,3898.287354 
	C1771.303955,3873.604004 1642.210083,3836.188232 1519.563843,3779.400146 
	C1387.954590,3718.462158 1264.928955,3642.668213 1149.101807,3555.277832 
	C1047.661621,3478.741943 954.755432,3393.012451 871.840820,3296.705078 
	C734.108337,3136.725586 631.808899,2956.470215 564.275940,2756.433838 
	C532.461365,2662.196777 509.190063,2565.862061 493.156006,2467.792725 
	C485.204834,2419.161133 479.617004,2370.197998 475.174194,2321.076904 
	C469.888947,2262.641113 467.266327,2204.117676 467.044098,2145.503174 
	C466.809235,2083.551758 469.209167,2021.700562 474.849762,1959.929565 
	C484.445923,1854.839966 502.917297,1751.473633 531.342896,1649.852661 
	C576.013916,1490.155396 643.942261,1341.054932 734.802124,1202.370728 
	C801.153931,1101.094360 877.846924,1008.340576 963.379395,922.666809 
	C1061.685181,824.198730 1169.406616,737.387756 1284.541382,659.528809 
	C1296.675293,651.323425 1308.154175,642.153687 1320.218018,633.839233 
	C1326.761108,629.329651 1333.500122,624.625854 1340.847168,621.858215 
	C1357.599121,615.547424 1373.473511,624.289551 1377.854492,641.751770 
	C1379.119629,646.794556 1379.156616,652.315491 1378.791016,657.549744 
	C1378.422729,662.821228 1377.227539,668.117126 1375.752686,673.216675 
	C1359.574585,729.154541 1352.418091,786.576721 1346.866699,844.324280 
	C1341.239014,902.864990 1341.157227,961.514343 1344.987427,1020.026733 
	C1350.533081,1104.744873 1366.837524,1187.633179 1392.661621,1268.585327 
	C1425.674194,1372.072021 1473.403198,1468.499390 1532.106934,1559.677002 
	C1583.455811,1639.430786 1641.430786,1714.201904 1704.155762,1785.202271 
	C1751.783936,1839.114014 1800.647583,1891.952271 1849.653320,1944.624512 
	C1913.183716,2012.908203 1977.822754,2080.161621 2041.204590,2148.581299 
	C2105.540039,2218.030029 2167.171631,2289.841064 2223.544434,2365.994141 
	C2296.434082,2464.459717 2357.978760,2569.328613 2401.635498,2684.161133 
	C2430.136475,2759.129150 2450.032959,2836.243652 2460.979004,2915.812012 
	C2470.747314,2986.819336 2472.102295,3058.088867 2466.907227,3129.219238 
	C2454.777832,3295.286621 2406.130615,3450.485840 2322.604492,3594.613770 
	C2270.221436,3685.002930 2206.906006,3767.203369 2135.172119,3842.989746 
	C2116.391602,3862.830566 2096.907715,3882.007080 2077.689941,3901.432129 
	C2073.945312,3905.217285 2069.748779,3908.563477 2066.094238,3912.427490 
	C2061.038330,3917.772705 2055.313232,3918.795166 2048.033691,3918.040283 
	C2000.983154,3913.159424 1954.183228,3906.556885 1905.880737,3898.287354 
z"/>
<path fill="#019EDB" opacity="1.000000" stroke="none" 
	d="
M3126.206055,1718.201904 
	C3156.873291,1688.443115 3186.591553,1659.737061 3216.162598,1630.880249 
	C3221.810547,1625.368408 3226.877686,1619.261475 3233.355713,1612.179932 
	C3228.896973,1609.357178 3226.002686,1606.204834 3222.697021,1605.689697 
	C3214.178223,1604.361572 3205.478516,1603.695068 3196.849121,1603.677979 
	C3178.698975,1603.641968 3161.072754,1600.724854 3143.649902,1595.861328 
	C3076.671631,1577.165161 3008.469482,1566.155396 2938.968750,1562.989990 
	C2863.387207,1559.547852 2788.619141,1564.499634 2715.282227,1584.156738 
	C2660.777100,1598.766113 2609.592773,1620.755859 2563.933838,1654.486328 
	C2496.408691,1704.370605 2453.419189,1770.694580 2432.168701,1851.528442 
	C2427.244873,1870.257324 2423.218262,1889.087158 2424.170410,1908.696411 
	C2424.458008,1914.620117 2423.865967,1920.768066 2422.548096,1926.556274 
	C2417.361572,1949.335815 2393.628662,1958.158569 2374.390381,1944.592529 
	C2371.159180,1942.313721 2368.200195,1939.473267 2365.658936,1936.437256 
	C2362.682373,1932.880859 2359.770264,1929.086304 2357.742432,1924.948120 
	C2334.597656,1877.721313 2309.604980,1831.166016 2298.156982,1779.244141 
	C2293.581543,1758.491943 2289.851562,1737.397217 2287.856445,1716.258423 
	C2278.017578,1612.022949 2308.430420,1518.923096 2368.003906,1434.364014 
	C2403.621338,1383.808472 2447.762207,1341.526489 2496.347656,1303.578857 
	C2576.759033,1240.773926 2660.613770,1182.745850 2744.054932,1124.130981 
	C2788.767822,1092.721558 2834.155273,1062.211670 2876.497803,1027.559326 
	C2909.087402,1000.888733 2939.384277,971.903137 2964.322266,937.745911 
	C2990.167725,902.346313 3009.078857,863.848572 3017.501221,820.434387 
	C3021.498535,799.828369 3020.631104,779.321350 3018.894043,758.728577 
	C3018.111572,749.447754 3016.753418,740.188721 3015.148438,731.008667 
	C3008.985352,695.760071 3010.944580,660.612183 3016.628662,625.588867 
	C3017.888428,617.825806 3020.603516,610.056458 3024.007324,602.940002 
	C3029.235596,592.008423 3038.432861,587.978027 3050.407959,590.108398 
	C3065.026123,592.709045 3078.411377,598.756165 3091.234375,605.897095 
	C3111.022461,616.916931 3130.725586,628.114319 3150.134033,639.786743 
	C3277.288086,716.258301 3396.762939,803.093689 3505.924316,903.830994 
	C3641.664307,1029.095825 3756.336182,1170.995850 3845.550781,1333.081543 
	C3915.021240,1459.296143 3966.067383,1592.609375 4000.045654,1732.532837 
	C4016.246094,1799.246216 4028.477051,1866.660278 4036.683594,1934.847412 
	C4042.735596,1985.133545 4046.671875,2035.524902 4049.441406,2086.100830 
	C4052.104980,2134.743652 4052.709717,2183.358887 4050.635498,2231.927979 
	C4047.993652,2293.792480 4042.535156,2355.438477 4033.440674,2416.801025 
	C4014.902344,2541.883301 3982.567139,2663.167480 3936.381348,2780.817383 
	C3896.083984,2883.468018 3845.852539,2981.050537 3786.400391,3073.884766 
	C3726.557617,3167.329102 3658.203125,3254.189453 3581.727295,3334.519531 
	C3459.633057,3462.767822 3321.712646,3571.182861 3169.059814,3660.859863 
	C3041.659180,3735.702881 2907.843750,3796.387695 2767.328125,3842.169189 
	C2681.692871,3870.070068 2594.494629,3891.435791 2505.329834,3904.638428 
	C2444.649902,3913.623291 2383.803223,3920.515625 2322.380371,3920.793457 
	C2313.916504,3920.831787 2305.433594,3925.232910 2295.608398,3920.299561 
	C2296.483398,3917.533447 2296.917480,3914.379639 2298.382568,3911.814941 
	C2309.032959,3893.169922 2322.498779,3876.612305 2337.706543,3861.592529 
	C2360.936279,3838.650391 2384.986572,3816.535400 2408.081543,3793.461914 
	C2450.670410,3750.912842 2499.533936,3715.887451 2545.780762,3677.738525 
	C2657.864746,3585.280273 2769.422852,3492.191650 2877.152588,3394.672852 
	C2948.956543,3329.674316 3014.627441,3258.879639 3071.000244,3179.827148 
	C3137.057617,3087.194336 3185.478516,2986.251709 3213.735352,2875.897461 
	C3224.650146,2833.270752 3232.116211,2790.037354 3236.789307,2746.216553 
	C3242.536377,2692.328125 3242.839600,2638.361572 3239.067383,2584.525879 
	C3233.554199,2505.849854 3217.738281,2428.973145 3193.778320,2353.754395 
	C3173.113037,2288.878906 3145.221680,2226.941650 3118.330078,2164.571045 
	C3087.215332,2092.405518 3056.350098,2020.132080 3025.547852,1947.832520 
	C3021.904053,1939.280151 3018.663330,1930.437378 3016.407227,1921.435547 
	C3010.536621,1898.016357 3013.945801,1875.234619 3022.447998,1852.953979 
	C3031.094727,1830.294189 3044.193604,1810.281006 3058.842285,1791.181274 
	C3078.782471,1765.182495 3101.996582,1742.192505 3126.206055,1718.201904 
z"/>
<path fill="#04A0DC" opacity="1.000000" stroke="none" 
	d="
M2731.442383,1791.577148 
	C2720.614258,1765.808472 2721.839111,1742.076538 2734.695312,1719.051147 
	C2751.270020,1689.366333 2785.624023,1671.802490 2825.590088,1682.081177 
	C2859.710693,1690.856445 2884.664062,1723.265991 2883.532227,1761.320801 
	C2882.420410,1798.713257 2854.400879,1829.598022 2818.083496,1836.657715 
	C2783.873535,1843.307983 2746.131348,1824.498169 2731.442383,1791.577148 
z"/>
</svg>